# xmcd
#
# Track frame offsets:
# 150
# 19850
# 36102
# 56781
# 77856
#
# Disc length: 1260 seconds
#
#
# Revision: 0
# Processed by: cddbd v1.4PL0 Copyright (c) Steve Scherf et al.
# Submitted via: FreeRIP 2.00 
#
DISCID=3a04ea05
DTITLE=ONICA JESSIE - O J MUSIC
DYEAR=2002
DGENRE=Country
TTITLE0=LOVE IS LIKE
TTITLE1=SUNSHINE IN MY HEART
TTITLE2=GOD'S PARADICE
TTITLE3=JUST REMEBER
TTITLE4=GOD IS BACK
EXTD=GREAT MUSIC
EXTT0=
EXTT1=
EXTT2=
EXTT3=
EXTT4=
PLAYORDER=
